# xmcd CD database file
#
# Track frame offsets:
#	150
#	27607
#	53634
#	82633
#	104117
#	125386
#	150511
#	168046
#	192080
#	210402
#	234326
#	253788
#	271494
#	288604
#
# Disc length: 4157 seconds
#
# Revision: 0
# Processed by: cddbd v1.5.2PL0 Copyright (c) Steve Scherf et al.
# Submitted via: NeoAudio 9.9.9
#
DISCID=b8103b0e
DTITLE=Willie Rosario - purasalsa
DYEAR=2006
DGENRE=Salsa
TTITLE0=La Mitad
TTITLE1=El Antifaz
TTITLE2=Ojala Que Te Vaya Bonito
TTITLE3=A Todo Cuba Le Gusta
TTITLE4=El Flamboyan
TTITLE5=Busca El Ritmo
TTITLE6=Ataca
TTITLE7=Mala Mujer
TTITLE8=Bajo La Luna
TTITLE9=Maria Elena
TTITLE10=Como Eres Tú
TTITLE11=Cuando Se Canta Bonito
TTITLE12=Quien Lo Diría
TTITLE13=Atizame El Fogon
EXTD=YEAR: 2006
EXTT0=
EXTT1=
EXTT2=
EXTT3=
EXTT4=
EXTT5=
EXTT6=
EXTT7=
EXTT8=
EXTT9=
EXTT10=
EXTT11=
EXTT12=
EXTT13=
PLAYORDER=
